<svg xmlns="http://www.w3.org/2000/svg" xmlns:xlink="http://www.w3.org/1999/xlink" width="38.632" height="38.632" viewBox="0 0 38.632 38.632">
  <defs>
    <linearGradient id="linear-gradient" x1="0.379" y1="-0.374" x2="0.755" y2="-0.751" gradientUnits="objectBoundingBox">
      <stop offset="0" stop-color="#f2f2f2"/>
      <stop offset="1" stop-color="#c3c3c3"/>
    </linearGradient>
    <linearGradient id="linear-gradient-2" x1="0.191" y1="-8.848" x2="1.333" y2="-9.991" gradientUnits="objectBoundingBox">
      <stop offset="0" stop-color="#a7f3ce"/>
      <stop offset="1" stop-color="#61db99"/>
    </linearGradient>
    <linearGradient id="linear-gradient-3" x1="0.385" y1="-1.007" x2="0.897" y2="-1.519" gradientUnits="objectBoundingBox">
      <stop offset="0" stop-color="#777"/>
      <stop offset="1" stop-color="#3b4041"/>
    </linearGradient>
    <linearGradient id="linear-gradient-4" x1="0.54" y1="-4.112" x2="0.319" y2="-3.89" xlink:href="#linear-gradient-3"/>
    <linearGradient id="linear-gradient-5" x1="0.528" y1="-2.159" x2="0.376" y2="-2.007" xlink:href="#linear-gradient-3"/>
    <linearGradient id="linear-gradient-6" x1="0.542" y1="-2.958" x2="0.321" y2="-2.736" xlink:href="#linear-gradient-3"/>
    <linearGradient id="linear-gradient-7" x1="0.192" y1="-1.529" x2="1.188" y2="-2.525" xlink:href="#linear-gradient-3"/>
    <linearGradient id="linear-gradient-8" x1="0.268" y1="1.123" x2="1.035" y2="0.356" xlink:href="#linear-gradient-2"/>
    <linearGradient id="linear-gradient-9" x1="0.723" y1="0.821" x2="-0.045" y2="1.589" xlink:href="#linear-gradient-2"/>
  </defs>
  <g id="search" transform="translate(0 38.632) rotate(-90)">
    <path id="Path_30" data-name="Path 30" d="M2.781,8.019,0,5.238,5.238,0,8.019,2.781Z" transform="translate(11.211 19.402)" fill="url(#linear-gradient)"/>
    <path id="Path_31" data-name="Path 31" d="M2.2,3.333.3,1.425A1.008,1.008,0,0,1,.3,0h0L3.629,3.333h0A1.008,1.008,0,0,1,2.2,3.333Z" transform="translate(0.031 34.972)" fill="url(#linear-gradient-2)"/>
    <path id="Path_32" data-name="Path 32" d="M11.1,9.591,6.957,13.733a3.131,3.131,0,0,1-4.431,0L.918,12.124a3.131,3.131,0,0,1,0-4.431L5.06,3.551a10.678,10.678,0,0,1,3.066-2.14l.145-.067A10.681,10.681,0,0,0,9.9.41q.162-.114.319-.232l0,0a.862.862,0,0,1,1.129.076L14.4,3.3a.859.859,0,0,1,.078,1.125,10.67,10.67,0,0,0-1.171,1.953l-.067.145A10.679,10.679,0,0,1,11.1,9.591Z" transform="translate(0 23.981)" fill="url(#linear-gradient-3)"/>
    <path id="Path_33" data-name="Path 33" d="M6.032.231h0a.788.788,0,0,1,0,1.114L1.344,6.032a.788.788,0,0,1-1.114,0h0a.788.788,0,0,1,0-1.114L4.918.231A.788.788,0,0,1,6.032.231Z" transform="translate(5.353 30.636)" fill="url(#linear-gradient-4)"/>
    <path id="Path_34" data-name="Path 34" d="M8.877.231h0a.788.788,0,0,1,0,1.114L1.344,8.877a.788.788,0,0,1-1.114,0h0a.788.788,0,0,1,0-1.114L7.764.231A.788.788,0,0,1,8.877.231Z" transform="translate(2.647 26.877)" fill="url(#linear-gradient-5)"/>
    <path id="Path_35" data-name="Path 35" d="M6.032.231h0a.788.788,0,0,1,0,1.114L1.344,6.032a.788.788,0,0,1-1.114,0h0a.788.788,0,0,1,0-1.114L4.918.231A.788.788,0,0,1,6.032.231Z" transform="translate(1.733 27.017)" fill="url(#linear-gradient-6)"/>
    <path id="Path_38" data-name="Path 38" d="M4.14,5.227.225,1.312a.768.768,0,0,1,0-1.087h0a.768.768,0,0,1,1.087,0L5.227,4.14a.768.768,0,0,1,0,1.087h0A.768.768,0,0,1,4.14,5.227Z" transform="translate(10.106 23.074)" fill="url(#linear-gradient-7)"/>
    <path id="Path_39" data-name="Path 39" d="M23.782,4.08a13.931,13.931,0,1,0,0,19.7A13.931,13.931,0,0,0,23.782,4.08Zm-15.9,15.9a8.553,8.553,0,1,1,12.1,0A8.553,8.553,0,0,1,7.884,19.979Z" transform="translate(10.769)" fill="url(#linear-gradient-8)"/>
    <path id="Path_40" data-name="Path 40" d="M2.937,17.12a10.028,10.028,0,1,0,0-14.182A10.028,10.028,0,0,0,2.937,17.12ZM16.076,3.981a8.553,8.553,0,1,1-12.1,0A8.553,8.553,0,0,1,16.076,3.981Z" transform="translate(14.672 3.903)" fill="url(#linear-gradient-9)"/>
  </g>
</svg>
